<?xml version="1.0" encoding="utf-8"?>
<!-- Generator: Adobe Illustrator 21.1.0, SVG Export Plug-In . SVG Version: 6.00 Build 0)  -->
<svg version="1.1" id="Layer_1" xmlns="http://www.w3.org/2000/svg" xmlns:xlink="http://www.w3.org/1999/xlink" x="0px" y="0px"
	 viewBox="0 0 150 150" style="enable-background:new 0 0 150 150;" xml:space="preserve">
<style type="text/css">
	.st0{fill:#843DA5;}
</style>
<path class="st0" d="M102,94.2c-0.1-7.8-2-15-6.1-21.6c-0.1-0.2-0.2-0.4-0.4-0.6c-0.4-0.6-0.8-1.2,0-1.7c0.8-0.4,1.2,0.2,1.5,0.8
	c3.3,5,5.4,10.4,6.3,16.3c1.9,12.7-1.2,24.1-9.4,34c-7.2,8.7-16.6,13.7-27.9,15c-22.3,2.4-42.1-12.6-46.3-34.4
	c-4.3-22.4,10.3-44.6,32.8-49.3c13.2-2.8,25.2,0.2,35.7,8.7c0.9,0.7,1.7,1.4,2.5,2.2c0.4,0.4,0.6,0.4,1,0c3.9-3.9,7.8-7.8,11.6-11.7
	c0.4-0.4,0.4-0.8,0.3-1.3c-0.6-3-1.1-5.9-1.8-8.9c-0.2-1-0.1-1.8,0.7-2.6c5.2-5.3,10.4-10.6,15.7-15.9c0.2-0.2,0.5-0.5,0.7-0.7
	c0.9-0.8,1.7-0.6,1.9,0.6c0.6,2.6,1.1,5.2,1.6,7.8c0.6,2.7,0,2.1,2.7,2.7c2.5,0.5,5,1,7.5,1.5c0.5,0.1,1.2,0.1,1.4,0.8
	c0.2,0.7-0.3,1.1-0.7,1.5c-5.5,5.5-11,11-16.5,16.5c-0.6,0.6-1.2,0.8-2,0.6c-2.9-0.6-5.8-1.1-8.6-1.7c-0.9-0.2-1.5,0-2.1,0.6
	C96.1,61.8,87.7,70,79.4,78.2c-5.6,5.6-11.3,11.1-16.9,16.7c-0.3,0.3-0.6,0.5-0.9,0.8c-0.4,0.3-0.8,0.4-1.2,0
	c-0.4-0.4-0.4-0.9,0-1.3c0.9-0.9,1.8-1.8,2.7-2.8c0.4-0.4,0.8-0.8,1.1-1.1c1.1-1.1,1.1-1.2-0.3-1.9c-3.4-1.6-8,0-9.5,3.4
	c-1.7,3.9,0,8.1,4,9.7c3.6,1.4,7.8-0.5,9.2-4.1c0.1-0.4,0.2-0.7,0.3-1.1c0.2-0.5,0.6-0.9,1.1-0.7c0.5,0.2,0.8,0.6,0.6,1.2
	c-0.1,0.3-0.2,0.7-0.3,1c-1.5,4.1-5.5,6.6-9.6,6c-4.4-0.6-7.8-4.1-7.9-8.6c-0.1-3.5,1.4-6.3,4.4-8.1c3-1.8,6.2-1.8,9.2,0
	c0.9,0.6,1.5,0.5,2.2-0.3c1.8-1.9,3.7-3.8,5.7-5.7c0.5-0.5,0.7-0.9,0-1.4c-7.2-6.3-18.2-6.3-25.1,0.3c-5.4,5.2-7.3,11.7-5.2,19
	c2,7.1,6.8,11.6,14,13.1c11.1,2.4,21.4-5.4,22.5-16.7c0.3-2.8-0.2-5.4-1.1-8c-0.1-0.3-0.2-0.6-0.3-0.9c-0.1-0.5,0.1-0.8,0.5-1
	c0.5-0.2,0.8,0,1.1,0.3c0.2,0.4,0.4,0.8,0.6,1.2c4.3,12.2-4,25.5-16.9,27c-11.4,1.3-21.6-6.6-22.8-17.9c-1.5-14.1,10.1-24.5,23-22.8
	c4.2,0.6,8,2.1,11.2,5c0.6,0.5,0.9,0.4,1.4-0.1c1.5-1.5,3-3.1,4.5-4.5c0.7-0.7,0.7-1.1-0.1-1.7c-5.7-4.9-12.2-7.6-19.7-7.5
	c-14.4,0.2-26.3,10.4-28.7,24.6c-2.2,12.8,5,25.8,17.2,31.2c14,6.2,30.7,0.3,37.6-13.4c4.6-8.9,4.4-17.9,0-26.8
	c-0.2-0.4-0.7-0.8-0.2-1.3c0.5-0.6,1.1-0.5,1.6,0.3c2.9,5.2,4.2,10.7,3.7,16.7c-0.6,7.9-3.6,14.7-9.3,20.1
	c-16.4,15.8-41.9,9.5-50.3-10.4c-7-16.9,2.7-37.4,21.7-41.8c10.6-2.4,19.9,0.2,28.1,7.3c0.7,0.6,1,0.6,1.6,0
	c1.7-1.8,3.5-3.5,5.3-5.3c0.5-0.5,0.5-0.8,0-1.3c-6.2-5.7-13.5-9.4-21.9-10.6c-7.4-1.1-14.6-0.4-21.5,2.6
	c-13.9,6.1-22.3,16.7-24.6,31.7c-2.5,16.3,5.4,32.7,20.3,41.1c6.9,3.9,14.4,5.6,22.3,5.1c9.2-0.6,17.4-4,24.3-10.2
	c7.3-6.5,11.6-14.6,13.2-24.2C102,98.2,102.1,96.2,102,94.2 M119.8,25.2c-0.5,0.1-0.7,0.4-0.9,0.6c-4.8,4.7-9.5,9.5-14.3,14.2
	c-0.7,0.7-0.9,1.3-0.7,2.2c0.5,2.5,1.1,5,1.5,7.5c0.2,1,0.6,1.4,1.5,1.5c2.6,0.5,5.2,1,7.8,1.5c0.6,0.1,1.1,0.1,1.6-0.4
	c4.9-4.9,9.8-9.8,14.7-14.7c0.5-0.5,0.5-0.8-0.3-0.9c-2.4-0.4-4.9-1-7.3-1.4c-1.3-0.2-2-0.8-2.2-2.2
	C120.9,30.5,120.3,27.9,119.8,25.2 M47.7,40c-1.1-0.3-2.1-0.5-3.2-0.9c-0.6-0.2-1-0.2-1.3,0.6c-1,2.8-2.7,5.1-5.1,6.9
	c-0.6,0.5-0.8,0.9-0.3,1.6c0.6,0.8,1,1.7,1.5,2.6c0.3,0.5,0.5,1.1-0.2,1.5c-0.7,0.4-1.1-0.1-1.4-0.6c-0.6-0.9-1.1-1.8-1.6-2.7
	c-0.3-0.5-0.6-0.7-1.2-0.4c-2.8,1.2-5.8,1.7-8.8,1.2c-0.6-0.1-0.8,0.1-1,0.7c-0.2,1.1-0.5,2.1-0.8,3.2c-0.1,0.6-0.5,1-1.1,0.9
	c-0.7-0.2-0.7-0.7-0.6-1.3c0.2-1,0.5-2.1,0.8-3.1c0.2-0.6,0.1-1-0.6-1.2c-2.9-1.1-5.3-3-7.2-5.4c-0.5-0.6-0.8-0.6-1.4-0.2
	c-0.8,0.5-1.7,1-2.5,1.5c-0.5,0.3-1.1,0.5-1.5-0.1c-0.5-0.7,0.1-1.1,0.6-1.5c0.9-0.5,1.7-1.1,2.7-1.6c0.6-0.3,0.7-0.6,0.5-1.3
	c-1.3-2.8-1.7-5.8-1.2-8.8c0.1-0.6-0.2-0.8-0.7-1c-0.9-0.2-1.8-0.5-2.8-0.7c-0.6-0.2-1.4-0.4-1.2-1.2c0.2-1,1-0.7,1.7-0.5
	c0.9,0.2,1.8,0.4,2.6,0.7c0.6,0.2,0.9,0.1,1.2-0.5c1.1-2.9,2.8-5.2,5.3-7c0.6-0.4,0.6-0.9,0.2-1.5c-0.5-0.8-1-1.6-1.5-2.5
	c-0.3-0.5-0.7-1.1,0.1-1.6c0.8-0.5,1.2,0.1,1.5,0.7c0.5,0.8,1.1,1.7,1.6,2.5c0.3,0.6,0.7,0.7,1.3,0.4c2.8-1.2,5.7-1.7,8.7-1.2
	c0.6,0.1,0.9-0.1,1-0.6c0.2-1,0.5-1.9,0.8-2.9c0.2-0.7,0.4-1.4,1.3-1.1c0.9,0.2,0.6,1,0.5,1.6c-0.2,0.9-0.5,1.9-0.7,2.8
	c-0.2,0.7,0,1.1,0.7,1.3c2.9,1,5.2,2.9,7,5.3c0.4,0.5,0.7,0.5,1.2,0.2c0.9-0.6,1.8-1.1,2.8-1.6c0.5-0.3,1.1-0.5,1.5,0.2
	c0.4,0.7-0.1,1.1-0.6,1.4c-0.9,0.6-1.8,1.1-2.7,1.6c-0.5,0.3-0.7,0.6-0.5,1.2c1.2,2.8,1.8,5.7,1.3,8.7c-0.1,0.7,0.2,1.1,0.8,1.2
	c1,0.3,2.1,0.5,3.1,0.9c0.5,0.2,0.8,0.5,0.7,1.1C48.7,39.8,48.3,40,47.7,40 M42.5,34.1c0-7.8-6.2-14.2-13.8-14.3
	c-8,0-14.3,6.1-14.3,14.1c0,7.8,6.3,14.1,14.1,14.1C36.3,48.1,42.5,41.9,42.5,34.1 M113.4,80.5c-2.3,0-4.1-1.9-4.1-4.2
	c0-2.2,1.9-4.1,4.2-4.1c2.3,0,4.2,2,4.2,4.3C117.6,78.7,115.7,80.5,113.4,80.5 M111.2,76.4c0,1.3,0.9,2.3,2.2,2.3
	c1.3,0,2.3-1,2.3-2.3c0-1.3-1-2.3-2.2-2.3C112.2,74.2,111.3,75.2,111.2,76.4 M20.2,124.1c0,2.3-1.9,4.2-4.1,4.1
	c-2.2,0-4.2-2-4.2-4.2c0-2.3,1.9-4.1,4.2-4.1C18.4,120,20.2,121.8,20.2,124.1 M16.1,126.4c1.3,0,2.4-1,2.3-2.3
	c0-1.2-1.1-2.2-2.3-2.2c-1.2,0-2.3,1-2.3,2.2C13.8,125.5,14.7,126.4,16.1,126.4 M94.1,19.4c2.3,0,4.6,0,6.9,0c0.6,0,1.1-0.2,1.1-1
	c0-0.7-0.5-0.9-1.1-0.9c-0.3,0-0.7,0-1,0c-2.9,0-5.7,0-8.6,0c-1.3,0-2.6,0-3.9,0c-0.7,0-1.4,0.1-1.4,1c0,0.9,0.7,0.9,1.4,1
	c0.3,0,0.5,0,0.8,0C90.3,19.4,92.2,19.4,94.1,19.4L94.1,19.4z M125.3,119.6c2.2,0,4.4,0,6.6,0c0.6,0,1.3-0.1,1.3-0.9
	c0-0.8-0.6-1.1-1.3-1.1c-4.4,0-8.8,0-13.1,0c-0.7,0-1.4,0.1-1.4,1c0,0.9,0.7,0.9,1.4,0.9C120.9,119.7,123.1,119.6,125.3,119.6
	 M126.3,86.9c0-1.7,0-3.3,0-5c0-0.7-0.1-1.5-1-1.5c-0.9,0-1,0.7-1,1.5c0,3.3,0,6.6,0,9.9c0,0.7,0.1,1.5,1,1.5c0.9,0,1-0.8,1-1.5
	C126.3,90.2,126.3,88.5,126.3,86.9 M60.7,22.4c0-1.7,0-3.3,0-5c0-0.7-0.1-1.5-1-1.5c-0.9,0-0.9,0.7-0.9,1.4c0,3.4,0,6.8,0,10.2
	c0,0.7,0.1,1.4,1,1.4c0.9,0,1-0.7,1-1.4C60.7,25.9,60.7,24.1,60.7,22.4 M82.8,22.3c-1.5,0-3,0-4.6,0c-0.7,0-1.4,0.2-1.4,1
	c0,0.8,0.7,1,1.3,1c3,0,6,0,9,0c0.7,0,1.4-0.2,1.3-1c0-0.9-0.8-1-1.4-1C85.7,22.3,84.3,22.3,82.8,22.3L82.8,22.3z M136.6,114.8
	c1.5,0,3,0,4.5,0c0.7,0,1.4-0.1,1.4-1c0-0.9-0.7-1-1.4-1c-3,0-6,0-8.9,0c-0.6,0-1.3,0.1-1.4,0.9c0,0.9,0.6,1.1,1.3,1.1
	C133.6,114.8,135.1,114.8,136.6,114.8 M80,19.4c0.8,0,1.5,0,2.3,0c0.6,0,1-0.3,1-1c0-0.6-0.4-0.9-1-0.9c-1.5,0-3,0-4.4,0
	c-0.5,0-1,0.3-1,0.9c0,0.7,0.5,0.9,1,1C78.6,19.4,79.3,19.4,80,19.4 M139.1,119.6c0.8,0,1.5,0,2.3,0c0.5,0,0.9-0.3,1-0.9
	c0-0.6-0.3-1-0.9-1c-1.5,0-3,0-4.5,0c-0.5,0-0.9,0.4-0.9,1c0,0.7,0.5,0.9,1.1,0.9C137.8,119.7,138.4,119.6,139.1,119.6L139.1,119.6z
	 M60.7,33.6c0-0.6,0-1.2,0-1.8c0-0.6-0.4-0.9-1-0.9c-0.5,0-0.9,0.3-0.9,0.9c0,1.2,0,2.4,0,3.7c0,0.5,0.4,0.9,0.9,0.9
	c0.6,0,0.9-0.4,1-0.9C60.7,34.8,60.7,34.2,60.7,33.6 M126.3,98c0-0.6,0-1.1,0-1.7c0-0.6-0.3-1-1-1c-0.6,0-0.9,0.4-0.9,1
	c0,1.2,0,2.3,0,3.5c0,0.6,0.4,0.9,1,0.9c0.5,0,0.9-0.4,0.9-0.9C126.4,99.3,126.3,98.6,126.3,98L126.3,98z M93.6,22.5
	C93.6,22.5,93.6,22.5,93.6,22.5c-0.6,0-1.1,0-1.7,0c-0.5,0-0.8,0.4-0.8,0.9c0,0.5,0.3,0.8,0.7,0.9c1.2,0.2,2.3,0.2,3.5,0
	c0.5-0.1,0.8-0.4,0.8-1c0-0.5-0.4-0.8-0.9-0.9C94.6,22.5,94.1,22.5,93.6,22.5 M125.9,112.9c-0.6,0-1.1,0-1.7,0
	c-0.5,0.1-0.8,0.4-0.8,0.9c0,0.5,0.3,0.8,0.7,0.9c1.2,0.2,2.3,0.2,3.5,0c0.5-0.1,0.8-0.5,0.8-1c0-0.5-0.4-0.8-0.9-0.8
	C127,112.9,126.4,112.9,125.9,112.9L125.9,112.9z M134.5,59.8c0-0.7-0.9-1.2-1.5-0.7c-0.7,0.5-1.2,1.1-1.8,1.8
	c-0.3,0.3-0.3,0.6-0.1,1c0.2,0.3,0.5,0.5,0.8,0.5C132.6,62.3,134.5,60.4,134.5,59.8 M129.2,61.4c0-0.6-1.9-2.4-2.5-2.5
	c-0.7,0-1.2,0.7-0.8,1.3c0.5,0.8,1.2,1.5,2,2C128.4,62.6,129.2,62,129.2,61.4 M74.3,45.1c0.7,0,2.6-1.9,2.6-2.5
	c0-0.6-0.7-1.1-1.3-0.8c-0.9,0.5-1.6,1.2-2.1,2C73.2,44.5,73.6,45.1,74.3,45.1 M79.7,39.8c0.6,0,2.5-2,2.6-2.6
	c0-0.7-0.7-1.1-1.4-0.7c-0.8,0.5-1.4,1.2-1.9,1.9C78.5,39.1,79,39.9,79.7,39.8 M112.8,133.7c0-0.6-1.8-2.4-2.3-2.5
	c-0.7-0.1-1.3,0.6-1,1.2c0.5,0.9,1.2,1.6,2,2.1C112.2,134.9,112.9,134.4,112.8,133.7 M129.2,65.1c0-0.7-0.8-1.1-1.4-0.6
	c-0.7,0.5-1.3,1.2-1.8,1.8c-0.5,0.6-0.1,1.3,0.6,1.4C127.1,67.8,129.2,65.8,129.2,65.1 M74.1,36.4c-0.2,0-0.5,0.1-0.7,0.5
	c-0.2,0.3-0.2,0.7,0.1,1c0.5,0.7,1.1,1.3,1.9,1.7c0.7,0.4,1.3-0.1,1.3-0.8C76.7,38.1,75,36.4,74.1,36.4 M13.8,72.6
	c0.8-0.4,1.5-1.2,2.2-2c0.3-0.3,0.4-0.8,0-1.1c-0.4-0.4-0.8-0.4-1.2-0.1c-0.7,0.6-1.3,1.2-1.8,1.8C12.5,71.8,12.9,72.6,13.8,72.6
	 M10,72.6c0.7,0,1.1-0.8,0.6-1.4C10.2,70.5,9.6,70,9,69.4c-0.3-0.3-0.7-0.3-1.1-0.1c-0.3,0.2-0.4,0.4-0.4,0.8
	C7.5,70.7,9.4,72.6,10,72.6 M13.8,74.5c-0.7,0-1.2,0.7-0.8,1.3c0.5,0.8,1.2,1.5,2,2c0.6,0.4,1.3-0.1,1.3-0.8
	C16.2,76.4,14.4,74.5,13.8,74.5 M112.8,126.8c0-0.7-0.7-1.1-1.4-0.7c-0.7,0.5-1.3,1.1-1.8,1.8c-0.4,0.6,0,1.4,0.7,1.4
	C110.9,129.4,112.8,127.5,112.8,126.8 M8.4,77.9c0.6,0,2.4-1.9,2.5-2.5c0-0.3-0.1-0.6-0.4-0.8c-0.3-0.2-0.7-0.2-1,0
	c-0.7,0.6-1.4,1.2-1.9,1.9C7.2,77.2,7.7,77.9,8.4,77.9 M106.6,129.4c0.6-0.1,1-0.6,0.7-1.2c-0.5-0.9-1.2-1.7-2.1-2.2
	c-0.6-0.3-1.1,0.1-1.2,0.8C104,127.4,105.9,129.4,106.6,129.4 M107.4,132.2c0-0.3-0.1-0.6-0.4-0.8c-0.3-0.2-0.7-0.2-0.9,0
	c-0.7,0.6-1.4,1.2-1.9,1.9c-0.2,0.3-0.2,0.6,0,1c0.2,0.3,0.4,0.4,0.8,0.4C105.6,134.6,107.4,132.8,107.4,132.2 M82.2,44.2
	c0-0.7-1.8-2.5-2.4-2.5c-0.7,0-1.3,0.7-0.8,1.3c0.5,0.7,1.2,1.3,1.9,1.9c0.3,0.2,0.6,0.3,0.9,0C82,44.8,82.2,44.6,82.2,44.2
	 M134.5,66.9c0-0.7-2-2.7-2.7-2.6c-0.7,0.1-0.9,0.6-0.7,1.2c0.5,0.9,1.2,1.7,2.1,2.1C133.9,67.9,134.4,67.5,134.5,66.9 M28.5,43.2
	c-5.2,0-9.3-4.2-9.3-9.4c0-5.1,4.2-9.2,9.3-9.2c4.9,0,9.2,4.4,9.2,9.3C37.8,39,33.6,43.2,28.5,43.2 M28.5,26.5
	c-4.1,0-7.4,3.3-7.4,7.4c0,4,3.3,7.3,7.4,7.3c4.1,0,7.5-3.4,7.4-7.5C35.9,29.6,32.7,26.5,28.5,26.5"/>
</svg>
