<?xml version="1.0" encoding="utf-8"?>
<!-- Generator: Adobe Illustrator 21.1.0, SVG Export Plug-In . SVG Version: 6.00 Build 0)  -->
<svg version="1.1" id="Layer_1" xmlns="http://www.w3.org/2000/svg" xmlns:xlink="http://www.w3.org/1999/xlink" x="0px" y="0px"
	 viewBox="0 0 150 150" style="enable-background:new 0 0 150 150;" xml:space="preserve">
<style type="text/css">
	.st0{fill:#843DA5;}
</style>
<path class="st0" d="M78.4,106.3c-1.8,1.3-3.3,2.3-5.2,2.9c-4.3,1.2-8.1,0.4-11.6-2.3c-0.9-0.7-1.1-0.5-1.5,0.4
	c-1.8,3.9-3.9,7.7-5.1,11.9c-0.9,3.4-1.5,6.9-1.5,10.4c0,2.5-1.4,4-3.9,4c-6.4,0-12.7,0-19.1,0c-2.5,0-3.8-1.4-3.9-3.9
	c-0.1-6.1-1.6-12-4.2-17.5c-3.4-7-6.5-14.1-8.2-21.7c-1.2-5.3-1.8-10.7-1.9-16.1c0-3,1.8-4.8,4.8-4.8c15.2,0,30.4,0,45.6,0
	c3.3,0,5.2,2.1,4.9,5.4c-0.2,3-0.3,6-0.7,9c-0.1,0.5,0,0.9,0.6,0.8c2.2-0.4,4.2,0.1,6.3,0.8c0.1,0,0.2,0,0.5,0c-0.6-2-1.5-4-2.4-5.8
	c-1.4-3-2.9-6-4.4-8.9c-1.9-4-3-8.2-3.2-12.7c-0.3-6.8,2-12.7,6.3-17.9c8.2-9.9,21.4-13.2,33.1-7.9c9.7,4.3,15.4,12,16.8,22.6
	c0.7,4.8-0.4,9.5-2.5,13.9c-1.9,4.2-4,8.3-5.9,12.5c-2.6,5.9-4,12-4.7,18.4c-0.7,6.6-0.4,13.2-0.5,19.8c0,1.2-0.3,2.1-0.9,3.1
	c-4.1,6.7-8.2,13.5-12.4,20.2c-0.9,1.5-1.4,1.4-2.3,0c-4.2-6.9-8.4-13.8-12.6-20.6c-0.4-0.7-0.6-1.4-0.6-2.1c0-4,0-8,0-12V106.3z
	 M40.2,71.6c-7.6,0-15.2,0-22.8,0c-1.9,0-2.9,0.8-2.9,2.5c-0.1,3.4,0.2,6.8,0.6,10.2c1.2,8.7,4.1,16.9,8,24.7
	c3.3,6.6,5.4,13.5,5.6,20.9c0,1.5,0.5,1.9,2,1.9c6.3,0,12.6,0,18.8,0c1.4,0,2-0.6,2.1-2c0.1-1.2,0-2.5,0.1-3.7
	c0.6-5.8,2.4-11.2,5-16.3c2.4-4.7,4.5-9.6,6.1-14.6c2-6.6,3-13.3,3.1-20.2c0-2.6-0.7-3.3-3.3-3.3C55.1,71.6,47.6,71.6,40.2,71.6
	 M92.6,109.7c3.8,0,7.6,0,11.4,0c0.9,0,1.2-0.3,1.2-1.2c0-2,0.1-3.9,0.3-5.9c0.1-0.9-0.2-1.1-1.1-1.1c-5.3,0-10.6,0-15.9,0
	c-0.8,0-2,0.3-2-0.9c0-1.2,1.2-0.9,2-0.9c5.3,0,10.6,0,15.9,0c1,0,1.4-0.4,1.5-1.3c0.5-5,1.8-9.9,3.5-14.6c1.9-5.2,4.6-10,6.8-15
	c2.1-4.9,3.4-9.9,2.4-15.3c-1.1-6-4-11-8.5-14.9c-6-5.3-13.1-7.4-21-6.4c-6.5,0.8-12,3.8-16.3,8.8c-4.1,4.8-6.4,10.3-6.3,16.7
	c0.1,4.4,1.2,8.5,3,12.4c2.6,5.6,5.7,10.9,7.4,16.9c0.2,0.5,0.6,0.8,0.9,1.2c4.2,3.8,5.3,9.9,2.6,15c-0.4,0.8-0.6,1.6-0.5,2.5
	c0.1,0.9,0.2,1.9,0.2,2.8c0,1,0.4,1.3,1.3,1.3C85.2,109.7,88.9,109.7,92.6,109.7 M92.2,135.3c1.4,0,2.4,0,3.3,0
	c0.5,0,0.9-0.2,1.2-0.6c2.7-4.3,5.3-8.7,8-13c0.3-0.5,0.2-0.8-0.4-0.9c-1.1-0.2-2-0.7-2.8-1.5c-0.4-0.5-0.7-0.2-1.1,0.1
	c-2.3,2-4.9,2-7.2,0c-0.6-0.5-0.8-0.3-1.3,0.1c-1.9,1.6-4.2,1.9-6.1,0.5c-1.2-0.9-2-1-3.1,0.1c-0.3,0.3-0.8,0.5-1.3,0.5
	c-1.2,0.2-1,0.7-0.5,1.5c2.1,3.3,4.2,6.6,6.1,10C88.4,134.5,89.8,136.2,92.2,135.3 M69.8,107.8c0.4,0,1.2,0,2-0.2
	c5.3-1.3,8.7-6,8.2-11.6c-0.5-5.1-5-9.3-10.3-9.5c-2.6-0.1-3,0.2-3.5,2.8c0,0.1,0,0.2-0.1,0.3C65.9,90.6,66,91,67,90.5
	c0.8-0.4,1.7-0.5,2.5-0.5c3,0,6,2.4,6.8,5.3c0.9,3-0.5,6.4-3.3,8c-2.7,1.6-6.1,1.2-8.5-0.9c-0.6-0.5-1-1.8-1.6-1.6
	c-0.6,0.2-0.7,1.5-1.1,2.2c-0.4,0.8-0.2,1.3,0.4,1.8C64.3,106.8,66.6,107.9,69.8,107.8 M74.7,97.3c0-2.9-2.2-5.3-5-5.3
	c-3,0-5.3,2.2-5.3,5.3c0,2.8,2.4,5.2,5.2,5.2C72.3,102.5,74.6,100.1,74.7,97.3 M88.7,111.7c-0.8,0-1.5,0-2.2,0c-0.8,0-1.1,0.3-1,1.1
	c0,1.1,0,2.1,0,3.2c0,1.4,1,2.6,2.2,2.9c1.4,0.4,2.8-0.2,3.6-1.4c0.6-0.9,0.5-1.8,0.5-2.7C91.7,111.7,91.7,111.7,88.7,111.7
	 M96.9,111.7c-0.8,0-1.5,0-2.2,0c-0.6,0-0.9,0.3-0.9,0.9c0,1.1,0,2.3,0,3.4c0.1,1.7,1.4,2.9,3.1,2.9c1.7,0,3-1.1,3.2-2.9
	c0-0.4,0-0.8,0-1.2C100,111.7,100,111.7,96.9,111.7 M80.2,115.2c0,0.9,0,1.8,0,2.7c0,0.9,0.4,1.1,1.2,0.8c1.2-0.5,1.9-1.4,2-2.7
	c0.1-0.8,0-1.7,0-2.5c0-1.9,0-1.9-2-1.9c-0.9,0-1.3,0.2-1.2,1.2C80.3,113.7,80.2,114.4,80.2,115.2 M105.2,115.3v-1.7
	c0-2.1,0-2.1-2.1-2c0,0-0.1,0-0.1,0c-0.7-0.1-1,0.3-1,1c0,1.1,0,2.1,0,3.2c0.1,1.3,0.7,2.2,1.9,2.8c0.9,0.4,1.2,0.2,1.3-0.7
	C105.2,117.1,105.2,116.2,105.2,115.3 M92.9,137.2c-0.7,0.2-1.7-0.4-2.1,0.3c-0.3,0.6,0.5,1.2,0.8,1.8c1.1,1.8,1.1,1.8,2.3-0.1
	c0.4-0.6,1.2-1.2,0.9-1.8C94.6,136.9,93.6,137.3,92.9,137.2 M39.9,139.4c6.1,0,12.2,0,18.2,0c0.7,0,1.6,0,1.6-1c0-1-0.8-1-1.5-1
	c-0.1,0-0.2,0-0.4,0c-11.8,0-23.7,0-35.5,0c-0.4,0-0.7,0-1.1,0.1c-0.6,0.1-0.9,0.5-0.9,1.1c0,0.6,0.4,0.8,1,0.9c0.4,0,0.8,0,1.2,0
	C28.3,139.4,34.1,139.4,39.9,139.4 M22.9,59c0,0.9,0.4,1.6,1,2.2c0.8,0.8,1.9,1.2,2.9,1.8c0.9,0.5,1.9,0.9,2.2,2
	c0.2,0.6,0.6,0.9,1.3,0.7c0.7-0.2,0.8-0.8,0.7-1.4c-0.2-1-0.8-1.7-1.7-2.2c-1-0.6-2-1-2.9-1.5c-0.6-0.3-1.3-0.7-1.3-1.4
	c0-0.8,0.7-1.2,1.4-1.5c0.8-0.4,1.7-0.8,2.5-1.3c2.8-1.7,2.8-4.3,0-5.9c-0.8-0.5-1.8-0.9-2.6-1.4c-0.6-0.3-1.3-0.7-1.3-1.6
	c0-0.8,0.8-1,1.4-1.3c1-0.5,2-0.9,2.9-1.5c0.8-0.6,1.5-1.3,1.7-2.3c0.1-0.6-0.1-1.1-0.8-1.3c-0.6-0.1-1,0.2-1.2,0.7
	c-0.3,1.1-1.1,1.5-2,1.9c-0.8,0.4-1.7,0.7-2.4,1.2c-2.4,1.6-2.4,4,0,5.5c0.9,0.6,1.9,1,2.8,1.5c0.6,0.3,1.3,0.7,1.3,1.5
	c0,0.8-0.7,1.1-1.3,1.4c-1,0.5-2,1-2.9,1.5C23.6,57,23,57.9,22.9,59 M42.3,39.5c0.1-0.8-0.1-1.2-0.6-1.4c-0.6-0.2-1.1,0.1-1.2,0.6
	c-0.3,1.2-1.2,1.6-2.1,2c-0.7,0.3-1.4,0.7-2.1,1.1c-2.5,1.6-2.6,4.1,0,5.7c0.9,0.5,1.8,0.9,2.7,1.4c0.6,0.3,1.3,0.7,1.3,1.5
	c0,0.8-0.8,1.2-1.4,1.5c-1,0.5-2.1,0.9-3,1.6c-0.8,0.6-1.4,1.3-1.5,2.3c0,0.6,0.2,1,0.8,1.2c0.6,0.2,1-0.2,1.2-0.7
	c0.2-1,1-1.5,1.8-1.9c0.8-0.4,1.6-0.7,2.3-1.2c2.6-1.6,2.6-4.2,0-5.8c-0.9-0.5-1.9-0.9-2.8-1.5c-1.6-0.9-1.6-1.8,0.1-2.7
	c1-0.6,2.1-1.1,3.1-1.7C41.6,41.1,42.2,40.3,42.3,39.5 M31.1,27.3c0,2.6-2.1,4.7-4.8,4.7c-2.6,0-4.8-2.2-4.8-4.7
	c0-2.6,2.2-4.6,4.7-4.7C29,22.6,31.1,24.7,31.1,27.3 M29.1,27.4c0-1.6-1.2-2.7-2.8-2.7c-1.5,0-2.8,1.3-2.8,2.8
	c0,1.6,1.3,2.8,2.9,2.8C28,30.2,29.1,29,29.1,27.4 M130.3,134.9c-2.2,0-4-1.7-3.9-3.9c0-2.1,1.8-3.8,3.9-3.8c2.1,0,3.9,1.8,3.9,3.8
	C134.1,133.2,132.5,134.9,130.3,134.9 M130.2,132.9c1.1,0,2-0.7,2-1.8c0-1.1-0.8-1.9-1.9-2c-1.2,0-2,0.8-1.9,1.9
	C128.4,132.2,129.1,132.9,130.2,132.9 M93.7,16.7c0-2.2,0-4.5,0-6.7c0-0.7,0-1.5-1-1.4c-0.9,0-1,0.7-1,1.4c0,4.4,0,8.8,0,13.3
	c0,0.7,0.2,1.4,1,1.4c0.9,0,1-0.7,1-1.4C93.7,21,93.7,18.8,93.7,16.7 M51,59.5c1,0,2,0,3,0c1.3,0,2.7,0,4,0c0.5,0,1-0.3,1.1-0.9
	c0-0.7-0.5-1-1.1-1c-0.2,0-0.5,0-0.7,0c-4.1,0-8.3,0-12.4,0.1c-0.5,0-0.9,0.1-1.4,0.2c-0.4,0.1-0.6,0.3-0.6,0.8
	c0,0.4,0.2,0.7,0.5,0.9c0.4,0.2,0.8,0.2,1.2,0.2C46.6,59.5,48.8,59.5,51,59.5L51,59.5z M63.6,41.3c-0.1-0.6-0.6-0.9-1-1.1
	c-3.2-1.8-6.3-3.6-9.5-5.4c-0.8-0.5-1.6-0.9-2.5-1.4c-0.5-0.2-0.9-0.1-1.2,0.4c-0.3,0.5-0.1,0.9,0.3,1.2c0.2,0.2,0.5,0.3,0.7,0.4
	c3.7,2.1,7.3,4.2,11,6.3c0.3,0.2,0.7,0.4,1.1,0.4C63.1,42.3,63.5,42,63.6,41.3 M34,14.7c1.7,0,3.5,0,5.2,0c0.8,0,2,0.1,2-1.1
	c0-1.1-1.1-1-1.9-1c-3.5,0-6.9,0-10.4,0c-0.3,0-0.7,0-1,0.1c-0.5,0.1-0.8,0.4-0.8,0.9c0,0.5,0.3,0.8,0.8,0.9
	c0.4,0.1,0.8,0.1,1.2,0.1C30.6,14.7,32.3,14.7,34,14.7 M136,83.1c-0.1-0.5-0.4-0.8-0.8-1.1c-3.9-2.3-7.8-4.6-11.7-6.9
	c-0.1-0.1-0.3-0.1-0.4-0.2c-0.5-0.2-0.9-0.1-1.1,0.4c-0.3,0.4-0.1,0.8,0.2,1.2c0.3,0.3,0.7,0.5,1.1,0.7c3.1,1.8,6.3,3.7,9.4,5.5
	c0.7,0.4,1.3,0.8,2.1,1.2C135.3,84.1,136,83.7,136,83.1 M122.6,42c0.4,0,0.7-0.1,1-0.3c3.9-2.1,7.8-4.1,11.7-6.2
	c0.2-0.1,0.4-0.2,0.6-0.4c0.4-0.3,0.5-0.7,0.2-1.2c-0.2-0.4-0.6-0.5-1-0.4c-0.4,0.1-0.7,0.3-1.1,0.5c-3.8,2-7.6,4-11.3,5.9
	c-0.3,0.1-0.6,0.3-0.8,0.5c-0.3,0.3-0.3,0.6-0.2,1C121.9,41.9,122.3,42,122.6,42 M67.7,15.3c-0.7,0-1.1,0.8-0.7,1.5
	c2.4,4,4.7,8,7.1,12c0.3,0.5,0.8,0.8,1.4,0.5c0.6-0.3,0.6-0.9,0.3-1.4c-2.4-4-4.7-8-7.1-11.9C68.5,15.6,68.2,15.3,67.7,15.3
	 M118.6,16.4c0-0.6-0.2-0.9-0.7-1c-0.7-0.2-1,0.3-1.3,0.8c-2.3,3.8-4.5,7.6-6.8,11.4c-0.4,0.6-0.7,1.4,0.1,1.9
	c0.8,0.5,1.2-0.3,1.5-0.9c2.2-3.8,4.5-7.5,6.7-11.3C118.3,16.9,118.5,16.6,118.6,16.4 M134.3,57.7c-2.3,0-4.5,0-6.7,0
	c-0.6,0-1.3,0.1-1.3,0.9c0,0.7,0.5,0.9,1.1,0.9c4.5,0.1,9.1,0.1,13.6,0.2c0.7,0,1.4-0.2,1.4-1.1c0-0.9-0.8-0.9-1.4-0.9
	C138.8,57.7,136.6,57.7,134.3,57.7L134.3,57.7z M136.8,104.5c0,1.7,0,3.5,0,5.2c0,0.7,0.1,1.4,1,1.5c0.9,0,1.1-0.7,1.1-1.4
	c0-3.4,0-6.9,0-10.3c0-0.7-0.2-1.5-1-1.5c-0.9,0-1.1,0.8-1.1,1.5C136.8,101.1,136.8,102.8,136.8,104.5L136.8,104.5z M121,142.1
	c-1.9,0-3.8,0-5.7,0c-0.7,0-1.5,0.1-1.5,1c0,0.9,0.7,1,1.4,1.1c3.8,0,7.6,0,11.3,0c0.7,0,1.5-0.2,1.4-1.1c0-0.9-0.8-1-1.5-1
	C124.7,142.1,122.8,142.1,121,142.1 M7.5,30.6c0,1.8,0,3.6,0,5.3c0,0.7,0.1,1.3,1,1.3c0.8,0,1-0.6,1-1.2c0-3.6,0-7.1,0-10.7
	c0-0.7-0.3-1.3-1.1-1.3c-0.8,0-0.9,0.6-0.9,1.3C7.5,27.1,7.5,28.9,7.5,30.6 M117.6,35c0.5,0,0.8-0.3,1-0.6c1.8-2,3.5-3.9,5.3-5.9
	c0.5-0.5,0.8-1,0.2-1.6c-0.6-0.6-1.2-0.2-1.6,0.3c-1.1,1.2-2.3,2.5-3.4,3.8c-0.7,0.8-1.4,1.6-2.1,2.4c-0.3,0.4-0.3,0.8-0.1,1.2
	C117,34.8,117.3,35,117.6,35 M69.7,33.2c0-0.4-0.2-0.7-0.5-0.9c-1.9-1.8-3.9-3.6-5.9-5.4c-0.5-0.5-1.1-0.7-1.7-0.1
	c-0.5,0.6-0.2,1.1,0.3,1.5c1.1,1,2.2,2,3.2,2.9c0.9,0.8,1.8,1.7,2.7,2.5c0.4,0.3,0.8,0.5,1.3,0.2C69.5,33.8,69.7,33.5,69.7,33.2
	 M111,139.9c1.3,0,2.7,0,4,0c0.6,0,1.2-0.2,1.2-1c0-0.8-0.6-1.1-1.3-1.1c-2.6,0-5.3,0-7.9,0c-0.6,0-1.2,0.2-1.3,1
	c0,0.8,0.6,1,1.3,1.1C108.4,139.9,109.7,139.9,111,139.9 M124.3,89.1c0-0.5-0.4-0.8-0.7-1.1c-1.9-1.7-3.8-3.5-5.6-5.2
	c-0.5-0.5-1.1-0.9-1.7-0.2c-0.6,0.7-0.1,1.2,0.4,1.6c1.7,1.5,3.3,3,5,4.5c0.4,0.4,0.8,0.8,1.3,1.1C123.5,90.3,124.3,89.9,124.3,89.1
	 M24.2,8.4c-1.3,0-2.7,0-4,0c-0.6,0-1.2,0.2-1.3,1c0,0.7,0.6,0.9,1.1,0.9c2.7,0,5.4,0,8.2,0c0.6,0,1.2-0.3,1.1-1.1
	c-0.1-0.7-0.7-0.8-1.2-0.8C26.9,8.4,25.6,8.4,24.2,8.4 M59.2,49.6c0.6-0.1,1-0.2,1.1-0.8c0.1-0.8-0.4-1.1-1-1.2
	c-2.5-0.6-5.1-1.1-7.6-1.7c-0.7-0.1-1.5-0.2-1.6,0.7c-0.2,0.9,0.6,1.1,1.3,1.2c2,0.5,4,0.9,6,1.3C58,49.3,58.6,49.4,59.2,49.6
	 M126.5,66.9c-0.6,0-1.1,0.1-1.2,0.7c-0.2,0.7,0.3,1,0.9,1.2c2.7,0.6,5.4,1.1,8.1,1.7c0.5,0.1,1.1,0,1.2-0.6
	c0.2-0.7-0.2-1.1-0.8-1.2C131.9,68,129.2,67.5,126.5,66.9 M104.8,16.7c0-0.6-0.2-1.1-0.8-1.2c-0.7-0.1-1,0.3-1.1,0.9
	c-0.4,1.9-0.8,3.8-1.2,5.7c-0.2,0.8-0.4,1.7-0.5,2.6c-0.1,0.6,0.2,1,0.8,1.1c0.6,0.1,0.9-0.3,1-0.8
	C103.6,22.2,104.2,19.4,104.8,16.7 M81,16.6c0,0.1,0.1,0.3,0.1,0.5c0.8,2.4,1.5,4.9,2.3,7.3c0.2,0.6,0.5,1.3,1.3,1
	c0.8-0.3,0.7-0.9,0.5-1.6c-0.7-2.2-1.3-4.4-2-6.5c-0.1-0.4-0.3-0.9-0.5-1.3c-0.2-0.4-0.6-0.6-1.1-0.5C81.2,15.6,81,16,81,16.6
	 M126.6,50.6c0.2,0,0.4-0.1,0.6-0.2c2.4-0.8,4.7-1.5,7.1-2.3c0.6-0.2,1.4-0.4,1.1-1.3c-0.3-0.9-1-0.7-1.7-0.4
	c-2.1,0.7-4.3,1.4-6.4,2.1c-0.4,0.1-0.9,0.3-1.3,0.5c-0.4,0.2-0.6,0.5-0.5,1C125.7,50.5,126.1,50.6,126.6,50.6 M136.7,115.7
	c0,0.6,0,1.3,0.1,1.9c0.1,0.6,0.4,1,1,0.9c0.5,0,0.8-0.4,0.9-0.9c0.2-1.2,0.2-2.4,0-3.6c-0.1-0.6-0.4-1-1-0.9c-0.6,0-0.9,0.5-1,1
	C136.8,114.6,136.8,115.1,136.7,115.7L136.7,115.7z M21.8,14.5c0.7,0,1.3,0,2,0c0.6,0,1-0.3,1-1c0-0.6-0.4-1-1-1c-1.3,0-2.6,0-3.9,0
	c-0.6,0-1,0.3-1,1c0,0.7,0.5,1,1.1,1C20.6,14.5,21.2,14.5,21.8,14.5L21.8,14.5z M108.7,142.1c-0.7,0-1.3,0-2,0c-0.5,0-0.9,0.3-1,0.9
	c-0.1,0.6,0.3,0.9,0.8,1c1.4,0.2,2.8,0.2,4.2,0c0.5-0.1,0.9-0.4,0.9-1c0-0.6-0.5-0.9-1-0.9C110,142.1,109.4,142.1,108.7,142.1
	L108.7,142.1z M7.5,41.8c0,0.6,0,1.3,0,1.9c0,0.5,0.4,0.9,0.9,0.9c0.6,0,0.9-0.3,1-0.8c0.2-1.3,0.2-2.6,0-3.9
	c-0.1-0.5-0.5-0.9-1-0.8c-0.6,0-0.9,0.5-0.9,1C7.5,40.7,7.5,41.3,7.5,41.8L7.5,41.8z M33.8,8.2c-0.9,0-1.4,0-2,0.2
	c-0.5,0.2-0.7,0.5-0.7,1c0,0.4,0.3,0.7,0.7,0.9c1.1,0.3,2.2,0.3,3.3,0c0.5-0.1,0.7-0.5,0.7-1c0-0.5-0.3-0.8-0.8-0.9
	C34.5,8.3,34,8.2,33.8,8.2 M120.4,139.9c0.4,0,0.9,0,1.3-0.1c0.6-0.1,1.1-0.4,1.1-1c0-0.6-0.5-0.9-1-1c-0.9-0.2-1.7-0.2-2.6,0
	c-0.6,0.1-1.1,0.4-1.1,1c0,0.7,0.6,0.9,1.1,1C119.6,139.9,120,139.9,120.4,139.9 M131.1,17.7c0.7,0,2.6-1.7,2.5-2.4
	c0-0.7-0.4-1-1.1-0.9c-0.6,0-2.2,1.6-2.3,2.2C130.2,17.3,130.5,17.6,131.1,17.7 M138.6,16.8c0-0.7-1.8-2.5-2.5-2.5
	c-0.8,0-1.2,0.8-0.7,1.5c0.5,0.7,1.1,1.2,1.8,1.7C137.9,18,138.6,17.5,138.6,16.8 M126.6,109.7c0-0.7-1.6-2.3-2.2-2.4
	c-0.4,0-0.7,0.1-0.9,0.4c-0.2,0.3-0.2,0.7,0,1c0.5,0.7,1,1.3,1.7,1.7C125.9,110.9,126.6,110.4,126.6,109.7 M56.8,10.2
	c-0.3,0-0.6,0.2-0.7,0.5c-0.2,0.4-0.1,0.7,0.1,1c0.5,0.6,1.1,1.1,1.7,1.6c0.7,0.5,1.4,0.1,1.5-0.6C59.3,12,57.6,10.2,56.8,10.2
	 M51.9,5.1c-0.7,0-1.2,0.7-0.8,1.4c0.5,0.8,1.1,1.4,1.9,1.8c0.6,0.3,1.3-0.2,1.3-0.8C54.3,6.9,52.5,5.2,51.9,5.1 M137.8,9.4
	c-0.7,0-2.5,1.8-2.5,2.5c0,0.7,0.8,1.1,1.5,0.7c0.7-0.4,1.3-1,1.7-1.7C139,10.2,138.5,9.5,137.8,9.4 M78.6,141.5
	c-0.5,0-0.9,0.3-0.9,1c0,0.7,1.7,2.4,2.4,2.4c0.5,0,0.8-0.3,0.9-0.8C81.1,143.4,79.4,141.6,78.6,141.5 M59.3,6.1
	c0-0.7-0.7-1.1-1.3-0.8c-0.8,0.4-1.4,1.1-1.9,1.9c-0.4,0.6,0.1,1.3,0.8,1.3C57.5,8.5,59.3,6.8,59.3,6.1 M133.7,11.8
	c0-0.7-1.9-2.5-2.6-2.5c-0.8,0.1-1.1,0.9-0.6,1.5c0.5,0.6,1.1,1.2,1.7,1.6C132.8,12.9,133.6,12.5,133.7,11.8 M52,13.5
	c0.9-0.2,1.4-1.1,2.1-1.8c0.3-0.4,0.3-0.8,0-1.2c-0.4-0.4-0.8-0.5-1.3-0.1c-0.7,0.5-1.3,1-1.7,1.7C50.6,12.8,51.1,13.5,52,13.5
	 M78.7,139.8c0.6,0,2.4-1.8,2.4-2.4c0-0.8-0.7-1.2-1.4-0.8c-0.7,0.4-1.3,1-1.7,1.7C77.6,139.1,78,139.9,78.7,139.8 M126,102.2
	c-0.7,0-2.5,1.7-2.5,2.5c0.1,0.8,0.6,1.1,1.2,0.8c0.9-0.4,1.5-1.2,2-2C127.1,102.9,126.6,102.2,126,102.2 M120.8,105.5
	c0.7,0,1.1-0.7,0.7-1.4c-0.5-0.7-1.1-1.4-1.8-1.8c-0.7-0.4-1.4,0-1.4,0.8C118.3,103.8,120.1,105.5,120.8,105.5 M120.8,107.3
	c-0.7,0-2.5,1.7-2.4,2.4c0.1,0.7,0.8,1.2,1.5,0.7c0.6-0.5,1.2-1,1.6-1.7C121.9,108.1,121.5,107.3,120.8,107.3 M73.6,144.9
	c0.7,0,2.5-1.8,2.4-2.5c0-0.7-0.8-1.1-1.4-0.7c-0.7,0.5-1.4,1.1-1.8,1.8C72.5,144.2,72.9,144.8,73.6,144.9 M73.7,136.5
	c-0.6,0-1.1,0.7-0.8,1.2c0.5,0.9,1.2,1.6,2.1,2c0.6,0.3,1.1-0.1,1.2-0.8C76.2,138.3,74.4,136.5,73.7,136.5 M32.8,118.9
	c-0.1-0.4-0.1-1-0.2-1.5c-0.5-2.9-1.8-5.6-3.1-8.1c-3.7-7.1-7.1-14.2-7.6-22.4c0-0.6-0.4-1.1-1-1C20.2,85.9,20,86.4,20,87
	c0,1.3,0.2,2.5,0.4,3.8c1,6.2,3.7,11.9,6.5,17.4c1.9,3.7,4.3,7.3,3.9,11.8c0,0.5,0.3,0.9,0.8,1c0.6,0.1,0.9-0.3,1-0.8
	C32.8,119.8,32.8,119.4,32.8,118.9 M61.2,81.4c0-1.1-0.2-1.7-0.9-1.7c-1,0-1,0.8-1.1,1.5c-0.1,0.6-0.1,1.3-0.2,1.9
	c-0.8,6.4-2.9,12.4-5.9,18.1c-0.3,0.6-0.5,1.2,0.2,1.6c0.7,0.4,1.2-0.1,1.5-0.7c0.7-1.4,1.4-2.8,2-4.2
	C59.2,92.7,60.7,87.1,61.2,81.4 M76,61.3c0.2-5.9,2.6-12.5,7.8-18c0.9-1,1.9-2,2.9-2.9c1.6-1.5,3.5-1.7,5.3-0.5c0.6,0.4,1,0.4,1.6,0
	c1.9-1.3,3.7-1.1,5.4,0.5c5.5,5,9.2,11.1,10.3,18.6c1.2,8.2-1,15.1-7.7,20.3c-1.2,0.9-2.6,1.6-4,2.2c-1.4,0.6-2.8,0.4-4-0.5
	c-0.5-0.4-0.9-0.4-1.4,0c-1.3,1-2.7,1-4.1,0.4C80.5,78.2,76,71.3,76,61.3 M101.7,46.3c-0.4,1.2-0.7,2.1-1.2,2.9
	c-0.3,0.5-0.7,0.9-1.3,0.6c-0.7-0.4-0.6-0.9-0.3-1.5c1.8-3.7,1.6-4.3-1.5-6.8c-0.1,0-0.1-0.1-0.2-0.2c-0.8-0.5-1.6-0.5-2.4-0.2
	c-0.8,0.4-1.1,1-1.1,1.9c0,2.6,0,5.3,0,7.9c0,0.9,0.2,1.2,1.1,1c1.2-0.2,2.1,0.4,2.7,1.3c0.3,0.4,0.3,0.9-0.1,1.3
	c-0.4,0.4-0.8,0.2-1.2-0.1c-0.2-0.1-0.3-0.3-0.4-0.4c-0.4-0.4-0.9-0.5-1.4-0.3c-0.6,0.2-0.7,0.6-0.7,1.2c0,2.6,0,5.1,0,7.7
	c0,0.6,0.2,0.9,0.7,1.2c2.5,1.4,4.7,1.2,6.8-0.9c0.3-0.3,0.6-0.7,1.2-0.6c0.6,0.2,0.7,0.7,0.8,1.2c0.1,1.1,0.4,2.1,1.4,2.7
	c0.5,0.3,1.1,0.5,0.6,1.3c-0.4,0.7-0.9,0.9-1.7,0.6c-1-0.4-1.6-1.1-2.1-2c-0.2-0.5-0.5-0.8-1.1-0.4c-1.9,1.1-3.9,1.1-5.9,0.4
	c-0.8-0.3-1,0-1,0.8c0,3.5,0,7,0,10.4c0,1,0.5,1.6,1.4,1.8c1.4,0.4,5.8-1.8,6.1-3.2c0.5-2.1,0.7-4.2-1.1-6c-0.4-0.4-0.6-0.8-0.2-1.3
	c0.4-0.5,0.9-0.3,1.4,0c1.1,0.8,1.7,1.9,1.9,3.1c0.1,0.7,0.2,1.4,0.4,2.3c3-3.7,4.1-7.8,3.9-12.4c-0.1-1.5-1-2.3-2.6-2.7
	c-2.2-0.6-3.9,0.3-5.6,1.6c-0.5,0.4-1.2,0.7-1.7,0.1c-0.5-0.6-0.1-1.2,0.4-1.6c2.4-2,5.1-3,8.2-1.7c0.2,0.1,0.5,0.3,0.8,0
	c-0.3-1.4-0.6-2.8-1.2-4.1c-1.3,1.3-2.4,1.9-3.3,2c-0.5,0-0.9-0.1-1-0.6c-0.2-0.5,0-0.9,0.5-1.2c0.4-0.2,0.9-0.3,1.3-0.6
	c1.1-0.7,1.8-1.9,1.4-2.7C103.7,49.1,102.9,47.8,101.7,46.3 M79.6,53.7c-0.6,1.1-0.8,2.2-1.1,3.2c-0.1,0.3-0.4,0.7,0,1
	c0.3,0.2,0.6-0.1,0.9-0.2c3.1-1.1,5.7-0.1,8.1,1.9c0.4,0.4,0.8,0.9,0.4,1.4c-0.5,0.6-1.1,0.4-1.6,0c-0.3-0.2-0.6-0.5-0.9-0.7
	c-1.2-0.9-2.6-1.3-4.1-1.1c-1.7,0.2-3.2,1.3-3.3,2.5c-0.2,4.2,0.7,8.2,3.1,11.7c0.2,0.3,0.3,0.7,0.8,0.8c0.2-0.3,0.1-0.7,0.2-1
	c0.3-1.7,0.8-3.2,2.2-4.3c0.5-0.3,1-0.4,1.4,0.1c0.4,0.5,0.3,0.9-0.1,1.3c-0.5,0.4-0.9,0.9-1.1,1.5c-0.5,1.5-0.3,3.1-0.5,4.7
	c0,0.4,0.3,0.7,0.6,1c1.2,1,2.5,1.7,3.9,2.2c1.3,0.5,2.9-0.5,2.8-1.7c-0.1-1.8-0.1-3.6-0.1-5.3c0-0.8-0.3-1-1.1-0.8
	c-1.8,0.6-2.4,1.4-2.4,3.9c0,0.6-0.1,1.2-0.8,1.2c-0.6,0-0.9-0.4-1-1c-0.5-2.5,1.1-5.5,3.6-6c1.5-0.3,1.8-1,1.6-2.3
	c0-0.1,0-0.2,0-0.4c0.1-0.9-0.2-1.1-1.1-0.8c-1.9,0.7-3.9,0.8-5.7-0.3c-0.7-0.4-1-0.2-1.2,0.5c-0.4,1-1.2,1.7-2.2,2
	c-0.5,0.1-0.9,0-1.2-0.5c-0.2-0.4-0.1-0.9,0.3-1c1.6-0.7,1.9-2.1,2.2-3.6c0.2-0.8,0.8-1,1.5-0.5c0.3,0.2,0.5,0.4,0.7,0.7
	c1.8,2,4.7,1.6,6.4,0.6c0.5-0.3,0.6-0.7,0.6-1.2c0-2.6,0-5.2,0-7.8c0-1-0.9-1.5-1.8-1c-0.2,0.1-0.4,0.3-0.5,0.4
	c-0.5,0.3-0.9,0.5-1.4,0c-0.5-0.5-0.2-1,0.1-1.4c0.6-0.7,1.4-1.3,2.4-1.1c1.2,0.2,1.3-0.4,1.3-1.3c0-2.4,0-4.9,0.1-7.3
	c0-0.9-0.2-1.5-0.8-1.9c-0.7-0.5-1.5-0.6-2.2-0.2c-3.2,1.5-3.9,3.7-2.2,6.8c0,0.1,0.1,0.1,0.1,0.2c0.4,0.6,0.6,1.2-0.2,1.6
	c-0.7,0.4-1.2-0.1-1.5-0.7c-0.4-0.8-0.8-1.7-1.2-2.7c-0.9,1.1-1.6,2.2-2.2,3.3c-0.8,1.4-0.6,2.4,0.7,3.3c0.4,0.3,0.8,0.5,1.3,0.6
	c0.6,0.2,1.1,0.6,0.8,1.3c-0.3,0.8-0.9,0.6-1.5,0.5C81.2,55.4,80.4,54.7,79.6,53.7 M93,106.2c2.6,0,5.1,0,7.7,0c0.7,0,1.3-0.2,1.3-1
	c0-0.8-0.7-1-1.3-1c-5,0-9.9,0-14.9,0c-0.7,0-1.4,0.1-1.4,1c0,0.9,0.8,1,1.4,1C88.2,106.2,90.6,106.2,93,106.2"/>
</svg>
