<?xml version="1.0" encoding="utf-8"?>
<!-- Generator: Adobe Illustrator 21.1.0, SVG Export Plug-In . SVG Version: 6.00 Build 0)  -->
<svg version="1.1" id="Layer_1" xmlns="http://www.w3.org/2000/svg" xmlns:xlink="http://www.w3.org/1999/xlink" x="0px" y="0px"
	 viewBox="0 0 150 150" style="enable-background:new 0 0 150 150;" xml:space="preserve">
<style type="text/css">
	.st0{fill:#843DA5;}
</style>
<path class="st0" d="M52.5,129.3H9.9c-0.4,0-0.8,0-1.1,0c-1.1-0.1-1.5-0.5-1.2-1.6c1.2-4.3,2.3-8.5,4-12.6c2.8-7,8.4-10.6,15.8-11.5
	c3.4-0.4,6.7,0,10,0.2c1,0.1,1.6-0.2,1.9-1.2c1.4-4.1,1.1-8.2-0.3-12.2c-0.1-0.4-0.4-0.7-0.7-1c-2.8-2.9-4.9-6.2-6.2-10
	c-0.2-0.6-0.5-1-1.2-1.2c-1.2-0.3-1.9-1.2-2.4-2.3c-1.8-4-1.8-8.1-0.2-12.2c0.2-0.6,0.5-1.2,1-1.5c1-0.7,1-1.5,0.9-2.6
	c-0.3-2.7-0.6-5.5-0.8-8.2c-0.2-2.4,0-4.7,0.5-7c0.7-3.2,2.7-5.1,5.7-6.2c4-1.4,8.1-2.5,12.3-2.9c5.5-0.6,11-0.2,16.5,1.1
	c2.1,0.5,4.2,1.2,6.2,1.9c3.5,1.3,5.2,3.9,5.6,7.5c0.6,4.8-0.1,9.5-0.6,14.2c-0.1,0.7,0,1.3,0.6,1.8c0.8,0.6,1.2,1.5,1.5,2.4
	c1.3,3.8,1.3,7.5-0.2,11.3c-0.6,1.3-1.4,2.5-2.9,2.8c-0.5,0.1-0.7,0.5-0.9,0.9c-1.6,4-3.7,7.6-6.8,10.6c-1.2,1.1-1.2,2.7-1.5,4.2
	c-0.6,2.9-0.4,5.8,0.5,8.7c0.3,0.9,0.7,1.2,1.7,1.2c2.8-0.1,5.6-0.3,8.5-0.3c8.2,0,16.3,4.8,18.6,14c0.8,3.2,1.9,6.4,2.8,9.7
	c0.5,1.8,0.2,2.1-1.6,2.1C81.3,129.3,66.9,129.3,52.5,129.3 M47,51.7c-3.4,0.1-6.6,0.2-9.7,0.6c-1.6,0.2-2.5,1.1-3.1,2.5
	c-0.9,2.1-1.6,4.2-2.1,6.4c-0.1,0.6-0.3,1.2-0.9,1.5c-0.9,0.4-1.3,1.2-1.6,2c-0.9,2.5-0.9,5.2-0.4,7.8c0.2,1.1,0.5,2.1,1.1,3
	c0.3,0.4,0.7,0.9,1.2,0.8c1.3-0.3,1.6,0.6,1.9,1.5c1.5,4.4,3.8,8.3,7.3,11.3c4.5,4,9.8,5.5,15.7,4.2c4.5-1,8.1-3.5,11-7
	c2.2-2.6,3.7-5.7,4.8-8.9c0.2-0.6,0.4-1.3,1.1-1.2c1.4,0.1,2-0.8,2.4-1.9c1.2-3.1,1.2-6.2,0.2-9.3c-0.3-0.9-0.6-1.8-1.6-2.3
	c-0.7-0.3-0.9-0.9-1-1.6c-0.4-2.6-1-5.1-2.5-7.3c-0.6-0.9-1.3-1.5-2.4-1.5c-1.4-0.1-2.9-0.2-4.3-0.2C58.2,51.9,52.4,52.1,47,51.7
	 M52.6,127.3c13.9,0,27.8,0,41.6,0c1.3,0,1.3,0,0.9-1.3c-0.9-2.9-1.8-5.8-2.7-8.7c-2-6.8-7.7-11.3-14.8-11.9
	c-3.4-0.3-6.7,0.2-10,0.2c-0.7,0-0.9,0.4-1.2,0.9c-1.9,3.7-4.5,6.9-7.4,9.9c-4.1,4.2-11.1,3.6-14.6-1.1c-2.1-2.8-4-5.6-5.6-8.7
	c-0.4-0.7-0.8-1.2-1.7-1.2c-2.8,0-5.6-0.4-8.3-0.2c-7.4,0.4-13.7,4.3-16.1,11.9c-0.9,2.9-1.8,5.9-2.7,8.8c-0.4,1.3-0.4,1.3,1,1.3
	C24.9,127.3,38.8,127.3,52.6,127.3 M31.7,56.1c0.3-0.7,0.6-1.5,0.9-2.2c0.7-1.8,2-2.9,4-3.2c1.7-0.3,3.3-0.6,5-0.6
	c8.7-0.1,17.5-0.2,26.2,0.2c2.2,0.1,3.8,1.1,4.9,3c0.4,0.7,0.7,1.4,1.2,2.2c0.3-3.1,0.5-6,0.3-9c-0.3-3.3-1.6-5.6-4.8-6.8
	c-6-2.2-12.2-3.4-18.7-3c-5.1,0.3-10,1.4-14.8,3.1c-2.6,0.9-4.1,2.8-4.4,5.4C30.8,48.9,31.1,52.5,31.7,56.1 M41.5,92.2
	c0,0.4,0,0.5,0,0.7c0.8,4.1,0.6,8-1.2,11.9c-0.3,0.6,0,1,0.2,1.5c1.5,2.8,3.3,5.4,5.2,7.9c3,3.8,8.4,4.3,11.9,0.9
	c2.6-2.5,4.9-5.4,6.6-8.5c0.4-0.7,0.5-1.3,0.1-2.1c-0.5-0.8-0.7-1.7-0.9-2.6c-0.8-3.1-0.7-6.2,0.1-9.5
	C56.1,96.7,48.9,96.8,41.5,92.2 M112.8,83.5c-1.2,0-2.4,0.1-3.5-0.2c-1-0.3-1.9,0-2.7,0.5c-1.3,0.8-2.6,1.5-3.9,2.2
	c-0.5,0.3-1,0.5-1.6,0.7c-0.5,0.2-1.1,0.2-1.5-0.2c-0.4-0.4-0.2-0.9,0-1.4c0.4-1.1,0.7-2.2,1.1-3.2c0.4-1,0.1-1.6-0.9-2.2
	c-5.8-3.8-9.3-9.1-10.3-15.9c-1.4-9,1.5-16.5,8.5-22.2c14.2-11.4,35.3-3.1,38.1,14.9C138.4,70.8,127.4,83.5,112.8,83.5 M102.1,84.3
	c1.6-0.9,2.9-1.6,4.2-2.3c1-0.6,2.1-0.7,3.3-0.5c2.1,0.4,4.3,0.4,6.4,0c11.3-1.8,19-11.5,18.6-22.4c-0.4-10.8-9.3-21-22.2-20.8
	c-5,0.1-9.4,1.8-13.4,5C90.9,49.9,88.7,62,94,71c1.8,3,4.2,5.5,7.2,7.4c1.7,1.1,1.9,1.6,1.5,3.5C102.5,82.6,102.3,83.3,102.1,84.3
	 M87.2,92.6c0,2.2-1.7,4-4,4.1c-2.2,0-4.1-1.9-4.1-4c0-2.2,1.9-4,4.1-4C85.6,88.7,87.2,90.3,87.2,92.6 M83.3,94.6c1.2,0,2-0.8,2-2
	c0-1.2-0.9-2.1-2.1-2c-1.1,0-2,0.9-1.9,2.1C81.2,93.9,82,94.7,83.3,94.6 M132.5,23.7c2.2,0,4,1.9,4,4.1c-0.1,2.2-1.9,4-4.1,4
	c-2.1,0-4.1-2.1-4-4.2C128.4,25.5,130.3,23.7,132.5,23.7 M134.5,27.7c0-1.1-0.9-2.1-2-2.1c-1.2,0-2.1,0.9-2.1,2.1c0,1.1,0.9,2,1.9,2
	C133.5,29.9,134.5,28.9,134.5,27.7 M32.6,25.7c-2.2,0-4.5,0-6.7,0c-0.7,0-1.4,0-1.4,0.9c0,0.9,0.7,1,1.4,1c4.6,0,9.1,0,13.7,0
	c0.7,0,1.4-0.2,1.4-1c0-0.9-0.8-0.9-1.4-0.9C37.1,25.7,34.9,25.7,32.6,25.7 M124.6,121.1c2.4,0,4.7,0,7.1,0c0.6,0,1.2-0.2,1.2-0.9
	c0-0.7-0.5-0.9-1.2-1c-0.1,0-0.2,0-0.3,0c-4.5,0-9,0-13.5,0c-0.7,0-1.5,0.1-1.5,1c0,0.9,0.8,0.9,1.4,0.9
	C120.1,121.1,122.3,121.1,124.6,121.1L124.6,121.1z M136.6,94.9c0-1.8,0-3.7,0-5.5c0-0.7-0.1-1.5-1-1.5c-0.9,0-1,0.8-1,1.5
	c0,3.6,0,7.2,0,10.9c0,0.7,0.1,1.5,1,1.5c0.9,0,1-0.8,1-1.5C136.6,98.5,136.6,96.7,136.6,94.9 M19,49.3c0-1.9,0-3.8,0-5.7
	c0-0.7-0.2-1.3-0.9-1.3c-0.8,0-1,0.6-1,1.2c0,3.8,0,7.6,0,11.4c0,0.7,0.3,1.3,1.1,1.3c0.8,0,0.9-0.7,0.9-1.4
	C19,53.1,19,51.2,19,49.3 M136.4,124.2c-0.5,0-1,0-1.5,0c-1,0-2.1,0-3.1,0c-0.7,0-1.4,0.1-1.4,1c-0.1,0.9,0.7,1,1.3,1.1
	c0.1,0,0.2,0,0.2,0c3,0,5.9,0,8.9,0c0.7,0,1.5-0.1,1.5-1c0-1-0.8-1-1.5-1C139.4,124.2,137.9,124.2,136.4,124.2L136.4,124.2z
	 M20.9,20.7c-1.6,0-3.3,0-4.9,0c-0.6,0-1.2,0.2-1.2,0.9c-0.1,0.8,0.6,0.9,1.2,1c3.2,0,6.4,0,9.6,0c0.6,0,1.3-0.3,1.2-1
	c0-0.8-0.7-0.8-1.3-0.8C24,20.7,22.4,20.7,20.9,20.7 M139.2,121c0.8,0,1.6,0,2.4,0c0.5,0,0.9-0.3,0.9-0.9c0-0.5-0.3-0.9-0.8-1
	c-1.6-0.2-3.3-0.2-4.9,0c-0.5,0.1-1,0.4-0.9,1c0.1,0.7,0.6,0.9,1.1,0.9C137.8,121.1,138.5,121.1,139.2,121L139.2,121z M18.1,25.8
	c-0.8,0-1.5,0-2.3,0c-0.5,0-1,0.2-1,0.9c0,0.6,0.4,1,0.9,1c1.6,0.1,3.2,0.1,4.8,0c0.5,0,0.9-0.4,0.9-1c0-0.6-0.4-0.9-1-0.9
	C19.6,25.7,18.8,25.8,18.1,25.8 M19,61.4c0-0.7,0-1.4,0-2c0-0.5-0.4-0.8-0.9-0.9c-0.5,0-0.9,0.3-0.9,0.8c-0.2,1.4-0.1,2.7,0,4.1
	c0,0.6,0.5,0.9,1,0.9c0.6,0,0.8-0.4,0.9-1C19,62.7,19,62,19,61.4L19,61.4z M136.6,107.1C136.6,107.1,136.6,107.1,136.6,107.1
	c0-0.7,0.1-1.4,0-2.1c-0.1-0.6-0.4-0.9-1-0.8c-0.5,0-0.8,0.4-0.8,0.9c0,1.3,0,2.6,0,3.9c0,0.5,0.3,0.9,0.9,0.9c0.6,0,1-0.3,1-0.9
	C136.6,108.4,136.6,107.7,136.6,107.1 M125.4,124.1c-0.6,0-1.2,0-1.8,0.1c-0.5,0.1-0.9,0.3-0.9,0.9c0,0.6,0.4,0.9,0.9,1
	c1.1,0.2,2.3,0.2,3.4,0c0.5-0.1,0.9-0.4,0.8-0.9c0-0.5-0.3-0.9-0.8-0.9C126.5,124.2,125.9,124.2,125.4,124.1 M31.9,22.7
	c0.6,0,1.2-0.1,1.8-0.2c0.5-0.1,0.8-0.4,0.8-1c0-0.5-0.4-0.8-0.9-0.8c-1.1,0-2.3-0.1-3.4,0c-0.5,0-0.8,0.4-0.8,0.9
	c0,0.5,0.3,0.8,0.8,0.8C30.7,22.6,31.3,22.6,31.9,22.7 M19.6,89.1c0-0.6-2-2.8-2.6-2.8c-0.4,0-0.7,0.1-0.9,0.5
	c-0.2,0.3-0.2,0.7,0.1,1c0.6,0.8,1.2,1.5,2,2C18.8,90.2,19.6,89.8,19.6,89.1 M91,33.8c0-0.1,0-0.3-0.1-0.3c-0.7-0.9-1.5-1.7-2.4-2.4
	c-0.3-0.2-0.7-0.1-1,0.1c-0.3,0.3-0.4,0.7-0.2,1c0.6,0.9,1.4,1.7,2.4,2.3C90.3,34.8,90.8,34.4,91,33.8 M88.6,28.6
	c0.9-0.4,1.5-1.3,2.3-2.1c0.3-0.4,0.4-0.8,0-1.2c-0.4-0.4-0.9-0.4-1.3-0.1c-0.7,0.6-1.3,1.3-1.8,2C87.2,27.9,87.6,28.6,88.6,28.6
	 M85,31.9c0-0.4-0.2-0.7-0.5-0.8c-0.4-0.2-0.8-0.1-1.1,0.1c-0.7,0.6-1.3,1.3-1.9,1.9c-0.3,0.3-0.3,0.7-0.1,1.1
	c0.2,0.3,0.5,0.4,0.8,0.4C82.9,34.6,85,32.5,85,31.9 M82.1,25c-0.7,0-1.2,0.8-0.7,1.4c0.6,0.8,1.4,1.4,2.1,2.1
	c0.3,0.3,0.8,0.3,1.1-0.1c0.4-0.4,0.3-0.9,0-1.2c-0.6-0.6-1.2-1.2-1.8-1.9C82.6,25.1,82.4,25,82.1,25 M22.7,89.9
	c0.3,0,0.5-0.1,0.7-0.3c0.6-0.6,1.3-1.2,1.9-1.8c0.3-0.4,0.5-0.8,0.1-1.2c-0.4-0.4-0.8-0.4-1.2-0.1c-0.8,0.6-1.5,1.3-2.1,2.1
	C21.7,89.2,22.1,89.9,22.7,89.9 M25.5,95.2c0-0.7-2.1-2.8-2.8-2.8c-0.7,0-1.1,0.7-0.7,1.3c0.6,0.9,1.3,1.6,2.2,2.2
	C24.8,96.3,25.5,95.8,25.5,95.2 M19.6,93.3c0-0.3-0.1-0.6-0.4-0.8c-0.3-0.2-0.7-0.2-1,0c-0.7,0.7-1.4,1.4-2.1,2.1
	c-0.2,0.3-0.2,0.6,0,1c0.2,0.3,0.4,0.4,0.8,0.4C17.5,96,19.6,93.9,19.6,93.3 M112.6,102.2c-0.2,0-0.5,0.1-0.7,0.4
	c-0.2,0.4-0.2,0.8,0.1,1.1c0.6,0.7,1.3,1.4,2,2c0.6,0.5,1.3,0.1,1.3-0.6C115.4,104.4,113.4,102.2,112.6,102.2 M108.4,102.2
	c-0.6,0-2.5,2.1-2.6,2.7c0,0.3,0.1,0.6,0.4,0.8c0.3,0.2,0.7,0.2,0.9,0c0.8-0.6,1.5-1.3,2-2.1C109.6,102.9,109.1,102.2,108.4,102.2
	 M106.6,96.3c-0.7,0-1.1,0.9-0.6,1.5c0.5,0.7,1.1,1.2,1.7,1.8c0.4,0.3,0.8,0.5,1.2,0.1c0.5-0.4,0.4-0.9,0.1-1.3
	c-0.5-0.6-1.1-1.3-1.7-1.9C107.1,96.4,106.9,96.3,106.6,96.3 M115.4,97.1c0-0.3-0.1-0.6-0.4-0.7c-0.3-0.2-0.7-0.1-1,0.1
	c-0.7,0.6-1.3,1.2-2,1.9c-0.3,0.3-0.3,0.7-0.1,1.1c0.2,0.3,0.4,0.4,0.8,0.4C113.3,99.8,115.3,97.7,115.4,97.1 M112.8,55.6
	c4.5,0,8.9,0,13.4,0c0.6,0,1.3-0.1,1.4-0.9c0-0.9-0.6-1-1.3-1.1c-0.2,0-0.4,0-0.6,0c-8.5,0-17.1,0-25.6,0c-0.3,0-0.7,0-1,0.1
	c-0.4,0.1-0.8,0.4-0.8,0.9c0,0.5,0.3,0.8,0.7,0.9c0.4,0.1,0.8,0.1,1.1,0.1C104.3,55.6,108.6,55.6,112.8,55.6 M112.8,62.3
	c4.3,0,8.6,0,12.9,0c0.7,0,1.7,0.2,1.7-0.9c0-1-1-1-1.7-1c-0.1,0-0.2,0-0.2,0c-8.4,0-16.8,0-25.2,0c-0.5,0-1,0-1.5,0.2
	c-0.4,0.2-0.6,0.5-0.5,0.9c0,0.4,0.3,0.7,0.6,0.7c0.4,0.1,0.8,0.1,1.2,0.1C104.3,62.3,108.6,62.3,112.8,62.3 M113.2,69.1
	c2.4,0,4.7,0,7.1,0c0.8,0,2,0.2,2-1.1c0-1.1-1.2-1-2-1c-4.8,0-9.6,0-14.4,0c-0.3,0-0.7,0-1,0.1c-0.5,0.1-0.8,0.4-0.9,0.9
	c0,0.5,0.3,0.8,0.8,0.9c0.4,0.1,0.8,0.1,1.2,0.1C108.5,69.1,110.8,69.1,113.2,69.1"/>
</svg>
